<?xml version="1.0" encoding="UTF-8"?>
<svg width="16" height="15.781" clip-rule="evenodd" fill-rule="evenodd" stroke-linecap="round" stroke-linejoin="round" stroke-miterlimit="1.5" version="1.1" viewBox="0 0 16 15.781" xml:space="preserve" xmlns="http://www.w3.org/2000/svg" xmlns:cc="http://creativecommons.org/ns#" xmlns:rdf="http://www.w3.org/1999/02/22-rdf-syntax-ns#"><g transform="translate(.021677 -.081656)"><path d="m15.967 3.9799c0-2.1451-1.7898-3.8867-3.9943-3.8867h-7.9885c-2.2045 0-3.9942 1.7416-3.9942 3.8867v7.9845c0 2.1451 1.7898 3.8867 3.9942 3.8867h7.9885c2.2045 0 3.9943-1.7416 3.9943-3.8867z" fill="#ebebeb" stroke="#000" stroke-width=".02306px"/></g><g transform="matrix(.023527 0 0 .023527 -9.3944 -2.8108)"><g aria-label="B"><path d="m472.45 340.27h245.76v138.24h-38.4v46.08h38.4v69.12h-245.76v-69.12h38.4v-46.08h-38.4zm238.08 7.68h-230.4v122.88h230.4zm0 184.32h-230.4v53.76h230.4zm-46.08-53.76h-138.24v46.08h138.24zm-107.52-99.84h69.12v7.68h7.68v23.04h-7.68v7.68h7.68v23.04h-7.68v7.68h-69.12zm46.08 161.28h84.48v7.68h7.68v7.68h-7.68v7.68h-61.44v7.68h69.12v7.68h-92.16v-15.36h7.68v-7.68h61.44v-7.68h-69.12zm-107.52 0h23.04v15.36h46.08v-15.36h23.04v38.4h-23.04v-15.36h-69.12zm76.8-99.84h46.08v-23.04h-46.08zm46.08-53.76h-46.08v23.04h46.08zm-138.24 107.52h15.36v15.36h-15.36zm92.16 0h15.36v15.36h-15.36zm-30.72 0h15.36v15.36h-15.36zm92.16 0h15.36v15.36h-15.36zm-30.72 0h15.36v15.36h-15.36zm92.16 0h15.36v15.36h-15.36z"/></g><g aria-label="D"><path d="m718.21 334.51h230.4v28.8h28.8v28.8h28.8v144h-28.8v28.8h-28.8v28.8h-230.4zm230.4 57.6h-28.8v-28.8h-144v201.6h144v-28.8h28.8z"/></g></g><metadata><rdf:RDF><cc:Work rdf:about=""/></rdf:RDF></metadata></svg>
